<?xml version="1.0" encoding="UTF-8" standalone="no"?>
<!-- Created with Inkscape (http://www.inkscape.org/) -->

<svg
   width="205"
   height="24"
   viewBox="0 0 205 24"
   version="1.1"
   id="svg1"
   inkscape:version="1.4.3 (0d15f75, 2025-12-25)"
   sodipodi:docname="vmt_paths.svg"
   xmlns:inkscape="http://www.inkscape.org/namespaces/inkscape"
   xmlns:sodipodi="http://sodipodi.sourceforge.net/DTD/sodipodi-0.dtd"
   xmlns="http://www.w3.org/2000/svg"
   xmlns:svg="http://www.w3.org/2000/svg">
  <sodipodi:namedview
     id="namedview1"
     pagecolor="#ffffff"
     bordercolor="#000000"
     borderopacity="0.25"
     inkscape:showpageshadow="2"
     inkscape:pageopacity="0.0"
     inkscape:pagecheckerboard="0"
     inkscape:deskcolor="#d1d1d1"
     inkscape:document-units="mm"
     inkscape:zoom="2"
     inkscape:cx="60.75"
     inkscape:cy="57.25"
     inkscape:window-width="1299"
     inkscape:window-height="828"
     inkscape:window-x="85"
     inkscape:window-y="79"
     inkscape:window-maximized="0"
     inkscape:current-layer="layer1" />
  <defs
     id="defs1" />
  <g
     inkscape:label="Layer 1"
     inkscape:groupmode="layer"
     id="layer1">
    <path
       style="font-weight:600;font-size:26.6667px;font-family:'Open Sans';-inkscape-font-specification:'Open Sans, Semi-Bold';letter-spacing:-2px;word-spacing:2px;fill:#ffffff;stroke-width:0.264583"
       d="m 16.197975,3.2616515 h 3.229171 L 12.760471,22.298134 H 9.4792164 L 2.838583,3.2616515 h 3.203129 l 3.971359,11.8359525 q 0.312501,0.846355 0.664064,2.187503 0.351563,1.328126 0.455729,1.979169 0.169271,-0.989585 0.520834,-2.29167 0.351563,-1.302085 0.572918,-1.927085 z m 7.286573,19.0364825 h -3.0599 V 7.897074 h 3.0599 z M 20.242356,4.081965 q 0,-0.8203135 0.442709,-1.2630224 0.45573,-0.4427089 1.289064,-0.4427089 0.807293,0 1.250002,0.4427089 0.45573,0.4427089 0.45573,1.2630224 0,0.781251 -0.45573,1.2369807 -0.442709,0.4427089 -1.250002,0.4427089 -0.833334,0 -1.289064,-0.4427089 Q 20.242356,4.863216 20.242356,4.081965 Z m 15.291689,14.114601 q 0,2.109378 -1.536461,3.242192 -1.53646,1.119793 -4.401047,1.119793 -2.877608,0 -4.622402,-0.872397 v -2.643233 q 2.539066,1.171877 4.726569,1.171877 2.825524,0 2.825524,-1.705731 0,-0.546876 -0.3125,-0.91146 -0.3125,-0.364584 -1.028647,-0.755209 -0.716147,-0.390626 -1.99219,-0.885418 -2.486983,-0.963543 -3.3724,-1.927086 -0.872397,-0.963543 -0.872397,-2.500003 0,-1.8489606 1.484377,-2.8645869 1.497397,-1.0286471 4.062505,-1.0286471 2.539065,0 4.804693,1.0286471 l -0.989584,2.3046909 q -2.330732,-0.963543 -3.919276,-0.963543 -2.421878,0 -2.421878,1.38021 0,0.677084 0.625001,1.145835 0.638021,0.46875 2.76042,1.289064 1.783856,0.690105 2.591149,1.263022 0.807293,0.572917 1.197918,1.328127 0.390626,0.742188 0.390626,1.783856 z m 11.463558,4.101568 -0.429688,-1.888023 h -0.15625 q -0.638022,1.002605 -1.822919,1.575522 -1.171877,0.572918 -2.682295,0.572918 -2.617191,0 -3.906255,-1.302085 -1.289065,-1.302085 -1.289065,-3.945318 V 7.897074 h 3.085942 v 8.88022 q 0,1.653647 0.677084,2.486982 0.677084,0.820313 2.122399,0.820313 1.927085,0 2.825524,-1.145834 0.911459,-1.158856 0.911459,-3.867193 V 7.897074 h 3.072921 v 14.40106 z m 13.78127,0 -0.61198,-2.005211 h -0.104167 q -1.041668,1.315106 -2.096357,1.796877 -1.054688,0.468751 -2.708336,0.468751 -2.122399,0 -3.320317,-1.145835 -1.184897,-1.145835 -1.184897,-3.242192 0,-2.226565 1.653648,-3.359379 1.653647,-1.132814 5.039068,-1.236981 l 2.486983,-0.07813 v -0.76823 q 0,-1.38021 -0.651043,-2.057294 -0.638021,-0.690105 -1.99219,-0.690105 -1.106772,0 -2.122398,0.325521 -1.015627,0.325521 -1.953128,0.76823 L 52.224175,8.8866586 q 1.171876,-0.61198 2.565107,-0.9244804 1.393231,-0.3255212 2.630212,-0.3255212 2.747399,0 4.14063,1.1979182 1.406252,1.1979178 1.406252,3.7630258 v 9.700533 z m -4.557297,-2.083336 q 1.666668,0 2.669274,-0.92448 1.015626,-0.937502 1.015626,-2.617191 v -1.250002 l -1.848961,0.07813 q -2.161461,0.07813 -3.151045,0.729168 -0.976564,0.638021 -0.976564,1.966148 0,0.963543 0.572917,1.497398 0.572918,0.520834 1.718753,0.520834 z m 12.075538,2.083336 h -3.0599 V 2.0376916 h 3.0599 z m 17.856798,0 -5.52084,-15.8984577 h -0.104167 q 0.221354,3.5416711 0.221354,6.6406337 v 9.257824 H 77.924735 V 3.2616515 h 4.388026 L 87.599226,18.4049 h 0.07813 L 93.120066,3.2616515 h 4.401048 V 22.298134 h -2.994796 v -9.414075 q 0,-1.419272 0.0651,-3.6979209 0.07813,-2.2786487 0.130209,-2.7604201 h -0.104167 l -5.716153,15.872416 z m 24.210968,0 -0.42969,-1.888023 h -0.15625 q -0.63802,1.002605 -1.82292,1.575522 -1.17187,0.572918 -2.68229,0.572918 -2.61719,0 -3.90626,-1.302085 -1.28906,-1.302085 -1.28906,-3.945318 V 7.897074 h 3.08594 v 8.88022 q 0,1.653647 0.67709,2.486982 0.67708,0.820313 2.12239,0.820313 1.92709,0 2.82553,-1.145834 0.91146,-1.158856 0.91146,-3.867193 V 7.897074 h 3.07292 v 14.40106 z m 14.44533,-4.101568 q 0,2.109378 -1.53646,3.242192 -1.53646,1.119793 -4.40105,1.119793 -2.8776,0 -4.6224,-0.872397 v -2.643233 q 2.53907,1.171877 4.72657,1.171877 2.82553,0 2.82553,-1.705731 0,-0.546876 -0.31251,-0.91146 -0.3125,-0.364584 -1.02864,-0.755209 -0.71615,-0.390626 -1.99219,-0.885418 -2.48698,-0.963543 -3.3724,-1.927086 -0.8724,-0.963543 -0.8724,-2.500003 0,-1.8489606 1.48438,-2.8645869 1.4974,-1.0286471 4.0625,-1.0286471 2.53907,0 4.8047,1.0286471 l -0.98959,2.3046909 q -2.33073,-0.963543 -3.91927,-0.963543 -2.42188,0 -2.42188,1.38021 0,0.677084 0.625,1.145835 0.63802,0.46875 2.76042,1.289064 1.78386,0.690105 2.59115,1.263022 0.80729,0.572917 1.19792,1.328127 0.39062,0.742188 0.39062,1.783856 z m 4.3672,4.101568 h -3.0599 V 7.897074 h 3.0599 z M 125.93522,4.081965 q 0,-0.8203135 0.44271,-1.2630224 0.45573,-0.4427089 1.28906,-0.4427089 0.80729,0 1.25,0.4427089 0.45573,0.4427089 0.45573,1.2630224 0,0.781251 -0.45573,1.2369807 -0.44271,0.4427089 -1.25,0.4427089 -0.83333,0 -1.28906,-0.4427089 -0.44271,-0.4557297 -0.44271,-1.2369807 z m 11.42449,18.476586 q -3.26823,0 -4.97396,-1.901044 -1.69271,-1.914065 -1.69271,-5.481778 0,-3.632817 1.77083,-5.5859445 1.78386,-1.9531275 5.14324,-1.9531275 2.27865,0 4.10157,0.8463552 l -0.92448,2.4609408 q -1.94011,-0.755209 -3.20313,-0.755209 -3.73699,0 -3.73699,4.960943 0,2.421878 0.92448,3.645838 0.93751,1.210939 2.73438,1.210939 2.04428,0 3.8672,-1.015626 v 2.669274 q -0.82032,0.481772 -1.75782,0.690105 -0.92448,0.208334 -2.25261,0.208334 z m 18.754,-0.260417 h -3.11199 V 5.9309257 h -5.59896 V 3.2616515 h 14.30991 v 2.6692742 h -5.59896 z m 16.36356,-7.226572 q 0,3.528651 -1.80989,5.50782 -1.8099,1.979169 -5.03907,1.979169 -2.01823,0 -3.56772,-0.91146 -1.54948,-0.911459 -2.38281,-2.61719 -0.83334,-1.705732 -0.83334,-3.958339 0,-3.502608 1.79688,-5.4687567 1.79688,-1.9661483 5.06511,-1.9661483 3.12501,0 4.94792,2.0182317 1.82292,2.0052113 1.82292,5.4166733 z m -10.48178,0 q 0,4.986986 3.6849,4.986986 3.64584,0 3.64584,-4.986986 0,-4.934902 -3.67188,-4.934902 -1.92709,0 -2.79948,1.276043 -0.85938,1.276044 -0.85938,3.658859 z m 24.77086,0 q 0,3.528651 -1.8099,5.50782 -1.80989,1.979169 -5.03907,1.979169 -2.01823,0 -3.56771,-0.91146 -1.54948,-0.911459 -2.38281,-2.61719 -0.83334,-1.705732 -0.83334,-3.958339 0,-3.502608 1.79688,-5.4687567 1.79688,-1.9661483 5.06511,-1.9661483 3.125,0 4.94792,2.0182317 1.82292,2.0052113 1.82292,5.4166733 z m -10.48178,0 q 0,4.986986 3.6849,4.986986 3.64584,0 3.64584,-4.986986 0,-4.934902 -3.67188,-4.934902 -1.92709,0 -2.79949,1.276043 -0.85937,1.276044 -0.85937,3.658859 z m 15.05731,7.226572 h -3.0599 V 2.0376916 h 3.0599 z m 12.04949,-4.101568 q 0,2.109378 -1.53646,3.242192 -1.53646,1.119793 -4.40104,1.119793 -2.87761,0 -4.62241,-0.872397 v -2.643233 q 2.53907,1.171877 4.72657,1.171877 2.82553,0 2.82553,-1.705731 0,-0.546876 -0.3125,-0.91146 -0.3125,-0.364584 -1.02865,-0.755209 -0.71615,-0.390626 -1.99219,-0.885418 -2.48698,-0.963543 -3.3724,-1.927086 -0.8724,-0.963543 -0.8724,-2.500003 0,-1.8489606 1.48438,-2.8645869 1.4974,-1.0286471 4.0625,-1.0286471 2.53907,0 4.8047,1.0286471 l -0.98959,2.3046909 q -2.33073,-0.963543 -3.91927,-0.963543 -2.42188,0 -2.42188,1.38021 0,0.677084 0.625,1.145835 0.63802,0.46875 2.76042,1.289064 1.78386,0.690105 2.59115,1.263022 0.80729,0.572917 1.19792,1.328127 0.39062,0.742188 0.39062,1.783856 z"
       id="text1"
       aria-label="Visual Music Tools" />
  </g>
</svg>
